{"title":"Johnny English Reborn 2011 DVDrip English Klam","uid":6949914,"size":1212378688,"categoryP":"video","categoryS":"movies","magnet":"?xt=urn:btih:69603a74f0094bf75fe6261a6983bd0e0e4bcc34&amp;dn=Johnny+English+Reborn+2011+DVDrip+English+Klam&amp;tr=udp%3A%2F%2Ftracker.openbittorrent.com%3A80&amp;tr=udp%3A%2F%2Fopen.demonii.com%3A1337&amp;tr=udp%3A%2F%2Ftracker.coppersurfer.tk%3A6969&amp;tr=udp%3A%2F%2Fexodus.desync.com%3A6969","seeders":0,"leechers":1,"uploader":"Klambake","files":-1,"time":1326366443,"description":"With: Rowan Atkinson, Rosamund Pike en Dominic West\n\nEr wordt opnieuw een beroep gedaan op Johnny English, de onwaarschijnlijke geheim agent in de Britse geheime dienst. Na zijn laatste perikelen heeft MI-7's Johnny English zijn vaardigheden bijgespijkerd in een afgelegen Aziatisch gebied. Maar wanneer zijn leidinggevenden lucht krijgen van een moordpoging op de Chinese president, wat een wereldchaos zal veroorzaken, gaan zij onmiddellijk op zoek naar hun onorthodoxe agent. Johnny moet wederom high-tech gadgets besturen om een web van list en bedrog te ontrafelen waarbij MI-7, de CIA en de KGB betrokken zijn.\n\nJohnny English goes up against international assassins hunting down the Chinese premier. \n\n------------------------ Dutch Friends ------------------------\n---------------------------------------------------------------\n- Bezoek ook eens mijn vrienden op: &lt;a href=&quot; http://www.Film-Test.nl&quot; rel=&quot;nofollow&quot; target=&quot;_NEW&quot;&gt; http://www.Film-Test.nl&lt;/a&gt; --\n----- voor mijn Nederlandse Sync. ondertitels ---- en meer ----\n------- http://www.Film-Test.nl ---- voor Films en meer -------\n---------------------------------------------------------------\n\nGeneral:\n\nComplete name                    : Johnny English Reborn\\Johnny English Reborn.avi\nFormat                           : AVI\nFormat/Info                      : Audio Video Interleave\nFile size                        : 1.13 GiB\nDuration                         : 1h 37mn\nOverall bit rate                 : 1 662 Kbps\n\nVideo:\n\nFormat                           : MPEG-4 Visual\nFormat profile                   : Simple@L3\nFormat settings, BVOP            : No\nFormat settings, QPel            : No\nFormat settings, GMC             : No warppoints\nFormat settings, Matrix          : Default (H.263)\nCodec ID                         : XVID\nCodec ID/Hint                    : XviD\nDuration                         : 1h 37mn\nBit rate                         : 1 459 Kbps\nWidth                            : 720 pixels\nHeight                           : 304 pixels\nDisplay aspect ratio             : 2.35:1\nFrame rate                       : 25.000 fps\nColor space                      : YUV\nChroma subsampling               : 4:2:0\nBit depth                        : 8 bits\nScan type                        : Progressive\nCompression mode                 : Lossy\nBits/(Pixel*Frame)               : 0.267\nStream size                      : 1 015 MiB (88%)\nWriting library                  : XviD 1.1.2 (UTC 2006-11-01)\n\nAudio:\n\nFormat                           : AC-3\nFormat/Info                      : Audio Coding 3\nMode extension                   : CM (complete main)\nCodec ID                         : 2000\nDuration                         : 1h 37mn\nBit rate mode                    : Constant\nBit rate                         : 192 Kbps\nChannel(s)                       : 2 channels\nChannel positions                : Front: L R\nSampling rate                    : 48.0 KHz\nBit depth                        : 16 bits\nCompression mode                 : Lossy\nStream size                      : 134 MiB (12%)\nAlignment                        : Aligned on interleaves\nInterleave, duration             : 32 ms (0.80 video frame)\n\n\n","torrent":{"xt":"urn:btih:69603a74f0094bf75fe6261a6983bd0e0e4bcc34","amp;dn":"Johnny+English+Reborn+2011+DVDrip+English+Klam","amp;tr":["udp%3A%2F%2Ftracker.openbittorrent.com%3A80","udp%3A%2F%2Fopen.demonii.com%3A1337","udp%3A%2F%2Ftracker.coppersurfer.tk%3A6969","udp%3A%2F%2Fexodus.desync.com%3A6969"],"infoHash":"69603a74f0094bf75fe6261a6983bd0e0e4bcc34","infoHashBuffer":{"type":"Buffer","data":[105,96,58,116,240,9,75,247,95,230,38,26,105,131,189,14,14,75,204,52]},"announce":[],"urlList":[]}}